<svg xmlns="http://www.w3.org/2000/svg" viewBox="0 0 334 85.65"><defs><style>.cls-1{fill:#2c4e8d;}</style></defs><title>arrowAsset 2</title><g id="Layer_2" data-name="Layer 2"><g id="Layer_1-2" data-name="Layer 1"><path class="cls-1" d="M11.14,24.76A314.25,314.25,0,0,1,51.83,11.17c1.73-.48,3.5-.83,5.25-1.23s3.51-.81,5.28-1.13C65.92,8.18,69.45,7.47,73,7A174.79,174.79,0,0,1,94.6,5.35H100c1.8,0,3.59.12,5.39.18,3.6.08,7.17.47,10.75.75,7.13.78,14.22,1.79,21.2,3.24a348.35,348.35,0,0,1,41,11.14C191.8,25.1,205,30.09,218,35.31S244.07,46,257,51.53c25.8,11.13,51.41,22.63,77,34.12C308,75.12,282,64.57,255.79,54.41q-19.62-7.62-39.4-14.74C203.2,35,189.93,30.5,176.54,26.59A342.31,342.31,0,0,0,136,17.17c-6.82-1.16-13.68-1.88-20.52-2.37-3.43-.14-6.85-.39-10.28-.34-1.71,0-3.42-.05-5.13,0l-5.12.2A163.36,163.36,0,0,0,74.6,17c-3.36.52-6.69,1.33-10,2-1.66.36-3.31.85-5,1.26s-3.31.83-4.94,1.36A302.84,302.84,0,0,0,16,36.21h0a6.22,6.22,0,1,1-5.08-11.36Z"/><polygon class="cls-1" points="46.17 40.39 17.14 29.02 28.52 0 11.37 7.49 0 36.51 29.02 47.88 46.17 40.39"/></g></g></svg>