<?xml version="1.0" encoding="utf-8"?>
<!-- Generator: Adobe Illustrator 22.0.1, SVG Export Plug-In . SVG Version: 6.00 Build 0)  -->
<svg version="1.1" id="Layer_1" xmlns="http://www.w3.org/2000/svg" xmlns:xlink="http://www.w3.org/1999/xlink" x="0px" y="0px"
	 viewBox="0 0 2000 800" style="enable-background:new 0 0 2000 800;" xml:space="preserve">
<style type="text/css">
	.st0{fill:#FFFFFF;}
	.st1{opacity:0.7;fill:#E4EFFA;enable-background:new    ;}
</style>
<title>arrowAsset 4</title>
<g id="Layer_2_1_">
	<g id="Layer_1-2">
		<rect class="st0" width="2000" height="800"/>
		<rect x="453.9" y="161.2" class="st1" width="17.9" height="17.9"/>
		<rect x="331.5" y="385.1" class="st1" width="9" height="9"/>
		<rect x="792.7" y="106" class="st1" width="18.7" height="18.7"/>
		<rect x="848" y="597.1" class="st1" width="21.6" height="21.6"/>
		<rect x="1455.4" y="44.8" class="st1" width="17.9" height="17.9"/>
		<rect x="633" y="385.1" class="st1" width="9" height="9"/>
		<circle class="st1" cx="1464.4" cy="315.2" r="9"/>
		<circle class="st1" cx="1421.1" cy="680.6" r="6.7"/>
		<circle class="st1" cx="82.3" cy="106" r="9.3"/>
		<circle class="st1" cx="156.9" cy="513.5" r="14.9"/>
		<circle class="st1" cx="262.9" cy="31.4" r="6"/>
		<circle class="st1" cx="479.3" cy="706" r="21.6"/>
		<polygon class="st1" points="784.3,342.1 774.3,342.1 769.3,350.8 774.3,359.5 784.3,359.5 789.3,350.8 		"/>
		<polygon class="st1" points="1195.7,22.8 1192.7,22.8 1191.2,25.4 1192.7,28 1195.7,28 1197.2,25.4 		"/>
		<polygon class="st1" points="1337.6,438 1320.7,438 1312.2,452.6 1320.7,467.2 1337.6,467.2 1346,452.6 		"/>
		<rect x="1065.5" y="281.2" class="st1" width="21.6" height="21.6"/>
	</g>
</g>
<g id="Layer_2_2_">
	<g id="Layer_1-2_1_">
		<rect x="311.7" y="124.7" class="st0" width="1376.7" height="550.7"/>
		<rect x="624.1" y="235.7" class="st1" width="12.3" height="12.3"/>
		<rect x="539.9" y="389.8" class="st1" width="6.2" height="6.2"/>
		<rect x="857.3" y="197.6" class="st1" width="12.8" height="12.8"/>
		<rect x="895.3" y="535.6" class="st1" width="14.9" height="14.9"/>
		<rect x="1313.5" y="155.5" class="st1" width="12.3" height="12.3"/>
		<rect x="747.4" y="389.8" class="st1" width="6.2" height="6.2"/>
		<circle class="st1" cx="1319.6" cy="341.6" r="6.2"/>
		<circle class="st1" cx="1289.8" cy="593.2" r="4.6"/>
		<circle class="st1" cx="368.3" cy="197.6" r="6.4"/>
		<circle class="st1" cx="419.7" cy="478.1" r="10.3"/>
		<circle class="st1" cx="492.6" cy="146.3" r="4.1"/>
		<circle class="st1" cx="641.6" cy="610.6" r="14.9"/>
		<polygon class="st1" points="851.5,360.2 844.6,360.2 841.2,366.1 844.6,372.1 851.5,372.1 855,366.1 		"/>
		<polygon class="st1" points="1134.7,140.4 1132.7,140.4 1131.6,142.2 1132.7,143.9 1134.7,143.9 1135.7,142.2 		"/>
		<polygon class="st1" points="1232.3,426.1 1220.7,426.1 1214.9,436.2 1220.7,446.3 1232.3,446.3 1238.2,436.2 		"/>
		<rect x="1045.1" y="318.3" class="st1" width="14.9" height="14.9"/>
	</g>
</g>
<g id="Layer_2_3_">
	<g id="Layer_1-2_2_">
		
			<rect x="366.6" y="194.2" transform="matrix(0.8815 -0.4723 0.4723 0.8815 -79.5428 427.2979)" class="st0" width="889.6" height="355.9"/>
		
			<rect x="548.5" y="390.8" transform="matrix(0.8815 -0.4723 0.4723 0.8815 -120.9635 307.7376)" class="st1" width="8" height="8"/>
		
			<rect x="546.9" y="505.5" transform="matrix(0.8815 -0.4723 0.4723 0.8815 -174.609 319.3699)" class="st1" width="4" height="4"/>
		
			<rect x="669.8" y="297.9" transform="matrix(0.8815 -0.4723 0.4723 0.8815 -62.7589 354.1039)" class="st1" width="8.3" height="8.3"/>
		
			<rect x="794.9" y="478.5" transform="matrix(0.8815 -0.4723 0.4723 0.8815 -133.4326 434.9506)" class="st1" width="9.6" height="9.6"/>
		<rect x="916.8" y="134.8" transform="matrix(0.8815 -0.4723 0.4723 0.8815 43.5982 451.2808)" class="st1" width="8" height="8"/>
		
			<rect x="665.1" y="442.2" transform="matrix(0.8815 -0.4723 0.4723 0.8815 -130.686 367.6883)" class="st1" width="4" height="4"/>
		<ellipse transform="matrix(0.8815 -0.4723 0.4723 0.8815 1.7049 489.3617)" class="st1" cx="975.6" cy="241.3" rx="4" ry="4"/>
		<circle class="st1" cx="1035.4" cy="393.7" r="3"/>
		<circle class="st1" cx="389.8" cy="449.6" r="4.2"/>
		<circle class="st1" cx="504.7" cy="593.7" r="6.6"/>
		<circle class="st1" cx="444.9" cy="382.4" r="2.7"/>
		<circle class="st1" cx="671.5" cy="601.5" r="9.6"/>
		<polygon class="st1" points="714.7,394.7 710.7,396.8 710.6,401.3 714.4,403.6 718.3,401.5 718.4,397.1 		"/>
		<polygon class="st1" points="808.9,183.1 807.7,183.7 807.7,185.1 808.8,185.8 810,185.1 810,183.8 		"/>
		<polygon class="st1" points="951.7,316.1 945.1,319.6 944.9,327.1 951.2,331.1 957.9,327.5 958.1,320 		"/>
		
			<rect x="813.8" y="308.9" transform="matrix(0.8815 -0.4723 0.4723 0.8815 -51.1308 423.7976)" class="st1" width="9.6" height="9.6"/>
	</g>
</g>
</svg>
