<?xml version="1.0" encoding="utf-8"?>
<!-- Generator: Adobe Illustrator 22.0.1, SVG Export Plug-In . SVG Version: 6.00 Build 0)  -->
<svg version="1.1" id="Layer_1" xmlns="http://www.w3.org/2000/svg" xmlns:xlink="http://www.w3.org/1999/xlink" x="0px" y="0px"
	 viewBox="0 0 2000 800" style="enable-background:new 0 0 2000 800;" xml:space="preserve">
<style type="text/css">
	.st0{fill:#FFFFFF;}
	.st1{opacity:0.4;}
	.st2{fill:#E4EFFA;}
	.st3{fill:#99AED4;}
	.st4{fill:#DFE6EF;}
	.st5{opacity:0.7;fill:#E4EFFA;enable-background:new    ;}
</style>
<title>qweAsset 3</title>
<rect class="st0" width="2000" height="800"/>
<g class="st1">
	<circle class="st2" cx="1759.9" cy="330.6" r="113.8"/>
	<rect x="1575.1" y="154.6" class="st3" width="184.8" height="175.9"/>
	<polygon class="st4" points="1813.8,251.3 1715.3,280 1641.2,209 1665.7,109.4 1764.2,80.7 1838.2,151.7 	"/>
</g>
<rect x="453.9" y="161.2" class="st5" width="17.9" height="17.9"/>
<rect x="331.5" y="385.1" class="st5" width="9" height="9"/>
<rect x="792.7" y="106" class="st5" width="18.7" height="18.7"/>
<rect x="848" y="597.1" class="st5" width="21.6" height="21.6"/>
<rect x="1455.4" y="44.8" class="st5" width="17.9" height="17.9"/>
<rect x="633" y="385.1" class="st5" width="9" height="9"/>
<circle class="st5" cx="1464.4" cy="315.2" r="9"/>
<circle class="st5" cx="1421.1" cy="680.6" r="6.7"/>
<circle class="st5" cx="82.3" cy="106" r="9.3"/>
<circle class="st5" cx="156.9" cy="513.5" r="14.9"/>
<circle class="st5" cx="262.9" cy="31.4" r="6"/>
<circle class="st5" cx="479.3" cy="706" r="21.6"/>
<polygon class="st5" points="784.3,342.1 774.3,342.1 769.3,350.8 774.3,359.5 784.3,359.5 789.3,350.8 "/>
<polygon class="st5" points="1195.7,22.8 1192.7,22.8 1191.2,25.4 1192.7,28 1195.7,28 1197.2,25.4 "/>
<polygon class="st5" points="1337.6,438 1320.7,438 1312.2,452.6 1320.7,467.2 1337.6,467.2 1346,452.6 "/>
<rect x="1065.5" y="281.2" class="st5" width="21.6" height="21.6"/>
</svg>
